#N canvas 108 133 791 570 12;
#X obj 326 41 import mrpeach;
#X obj 122 84 udpreceive 57121;
#X obj 122 121 unpackOSC;
#X obj 125 161 routeOSC /25c368ec-5ab8-48ba-a055-3878b82d8317;
#X obj 442 190 print right;
#X obj 127 198 routeOSC /accel;
#X obj 127 239 unpack 0 0 0;
#X obj 66 322 print first;
#X obj 166 318 print second;
#X obj 279 317 print third;
#X text 211 139 uuid;
#X text 438 220 if no match;
#X connect 1 0 2 0;
#X connect 2 0 3 0;
#X connect 3 0 5 0;
#X connect 3 1 4 0;
#X connect 5 0 6 0;
#X connect 6 0 7 0;
#X connect 6 1 8 0;
#X connect 6 2 9 0;
